# xmcd
#
# Track frame offsets:
# 150
# 13554
# 27025
# 40106
# 52926
# 66468
# 82377
# 97763
# 108793
# 125146
# 141519
# 151979
# 166265
# 178873
# 193381
# 208919
# 222937
# 237877
#
# Disc length: 3447 seconds
#
#
# Revision: 0
# Processed by: cddbd v1.5.2PL0 Copyright (c) Steve Scherf et al.
# Submitted via: FreeRIP 2.96 
#
DISCID=040d7512
DTITLE=lonnigans skiffle group - skiffle sensation
DYEAR=2001
DGENRE=skiffle
TTITLE0=bonnie Lonnigan - freight train
TTITLE1=wee willie harris - diggin my potatoes
TTITLE2=donny lonnigan - 3.6.5 special
TTITLE3=connie lonnigan - she knows how to rock me
TTITLE4=diz disley - yas, yas, yas
TTITLE5=bonnie lonnigan - kansas city blues
TTITLE6=donny lonnigan - t-bone shuffle
TTITLE7=wee willie haris - north to alaska
TTITLE8=connie lonnigan - down and out
TTITLE9=donny lonnigan - good morning blues
TTITLE10=diz disley - square pegs stomp - instr.
TTITLE11=chas mcdevitt - goin home
TTITLE12=johnnie lonnigan - long lost john
TTITLE13=wee willie harris - trouble in mind
TTITLE14=instrumental - berals blues
TTITLE15=wee willie haris - jesse james
TTITLE16=donny u johnnie lonnigan - fishin blues
TTITLE17=bonnie lonnigan u wee willie harris - green back dollar
EXTD=
EXTT0=
EXTT1=
EXTT2=
EXTT3=
EXTT4=
EXTT5=
EXTT6=
EXTT7=
EXTT8=
EXTT9=
EXTT10=
EXTT11=
EXTT12=
EXTT13=
EXTT14=
EXTT15=
EXTT16=
EXTT17=
PLAYORDER=
